<?xml version="1.0" encoding="UTF-8" standalone="no"?>
<svg
   width="267.2916"
   height="300"
   viewBox="0 0 267.2916 300"
   fill="none"
   version="1.1"
   id="svg9"
   sodipodi:docname="kookoo_logo-704802edeb0402978e9340070694200e515ed026cf634ff2aaca3a2db5fa4b32.svg"
   inkscape:version="1.3.2 (091e20e, 2023-11-25, custom)"
   xmlns:inkscape="http://www.inkscape.org/namespaces/inkscape"
   xmlns:sodipodi="http://sodipodi.sourceforge.net/DTD/sodipodi-0.dtd"
   xmlns="http://www.w3.org/2000/svg"
   xmlns:svg="http://www.w3.org/2000/svg">
  <defs
     id="defs9" />
  <sodipodi:namedview
     id="namedview9"
     pagecolor="#ffffff"
     bordercolor="#999999"
     borderopacity="1"
     inkscape:showpageshadow="2"
     inkscape:pageopacity="0"
     inkscape:pagecheckerboard="0"
     inkscape:deskcolor="#d1d1d1"
     inkscape:zoom="0.7265091"
     inkscape:cx="68.822262"
     inkscape:cy="178.93788"
     inkscape:window-width="1500"
     inkscape:window-height="912"
     inkscape:window-x="-8"
     inkscape:window-y="-8"
     inkscape:window-maximized="1"
     inkscape:current-layer="svg9" />
  <g
     id="g9"
     transform="scale(3.6954408)">
    <path
       d="M 72.3221,40.3769 C 72.2372,39.928 72.0757,39.4971 71.8447,39.1031 l -1.2986,-2.0597 0.8351,-0.36 C 70.2128,29.6508 67.0382,23.1062 62.2396,17.838 l -0.5994,-0.6519 c 0,-0.162 -0.0939,-0.8899 -0.1118,-0.9699 -0.2629,-1.1844 -1.015,-2.2017 -2.0697,-2.7996 -0.0759,-0.042 -0.861,-0.3779 -0.869,-0.3799 -0.5261,-0.134 -1.0598,-0.2361 -1.5982,-0.306 -0.1578,-0.01 -0.3196,-0.016 -0.4895,-0.016 l -0.2996,-0.212 C 54.0817,11.0114 51.804,9.75743 49.4101,8.76326 v 0 c 0.0259,-0.41194 0.1998,-1.91174 0.1998,-1.92374 0.0299,-0.19997 0.1698,-1.05585 0.1997,-1.24182 0,-0.04 0.4435,-1.88974 0.5035,-2.09372 L 50.5568,2.6721 50.0294,1.98219 C 49.7237,1.58225 49.4301,1.1983 45.6723,0.582385 43.1728,0.169558 40.6421,-0.0244826 38.1089,0.00246502 v 0 C 25.2814,0.226434 16.0139,7.65941 15.6263,7.98137 L 14.1081,9.2212 c 0,0 1.9977,1.9457 2.5351,2.6836 -3.1103,2.0447 -5.8889,4.5549 -8.23869,7.443 l -3.28228,4.3714 c -0.05394,0.05 -0.10588,0.098 -0.15383,0.15 l -0.01198,0.012 c -0.04595,0.052 -0.33762,0.4199 -0.34961,0.4359 -0.05394,0.074 -0.9709,1.4798 -0.98488,1.5038 -0.01399,0.024 -0.37358,0.7559 -0.39955,0.7999 -0.02597,0.044 -0.38157,1.3858 -0.39955,1.4338 -0.01798,0.048 -0.07991,0.7399 -0.08191,0.7519 L 2.22751,30.2303 C 0.748437,34.3346 -0.00531485,38.6654 2.82077e-5,43.0285 2.82077e-5,53.0732 3.85766,62.4659 10.8597,69.4749 c 1.6513,1.6553 3.4575,3.1479 5.3939,4.4574 -0.7694,0.8763 -0.954,2.1227 -0.4718,3.1848 0.4823,1.0621 1.5418,1.7425 2.7073,1.7385 1.5686,0.0169 2.8695,-1.2112 2.9447,-2.7796 4.5948,2.4857 9.8208,3.1316 13.7004,3.1996 0.5594,1.2184 1.805,1.9719 3.1428,1.9009 1.3378,-0.071 2.4968,-0.952 2.9244,-2.2229 0,-0.026 0,-0.048 0,-0.072 2.3781,-0.4602 4.7068,-1.1473 6.9541,-2.0517 0.4265,0.8517 1.3818,1.2985 2.3081,1.0794 0.9263,-0.2191 1.5809,-1.0465 1.5815,-1.9993 0.0011,-0.3066 -0.0672,-0.6095 -0.1998,-0.8859 0.5992,-0.3365 1.1663,-0.7274 1.6941,-1.1678 0.3379,-0.3111 0.5956,-0.6995 0.7512,-1.1318 1.1301,0.1454 2.2373,-0.4006 2.8109,-1.3861 0.5735,-0.9855 0.5019,-2.219 -0.1819,-3.1313 0,0 -0.4535,-0.5899 -1.0229,-1.3238 0.2545,-0.0571 0.5038,-0.1353 0.7452,-0.234 0.3662,0.297 0.791,0.513 1.2466,0.6339 0.841,0.24 1.77,-0.016 2.5511,-0.3659 0.8281,0.4776 1.7507,0.7678 2.7029,0.8498 0.1489,0.0327 0.3012,0.0468 0.4535,0.042 1.3222,0.1097 2.619,-0.4087 3.5021,-1.3998 0.7505,-0.866 1.1783,-1.9655 1.2106,-3.1115 0.0015,-0.1588 -0.0112,-0.3175 -0.038,-0.474 -0.1265,-0.6562 -0.4742,-1.2492 -0.9849,-1.6798 3.0433,-5.5507 4.6342,-11.7818 4.6248,-18.1135 l -0.018,-1.1998 0.3656,-0.2 c 0,0 0.0719,-1.2318 0.0719,-1.2358"
       fill="white"
       style="fill:#ffffff;fill-opacity:1"
       id="path1" />
    <path
       fill-rule="evenodd"
       clip-rule="evenodd"
       d="m 35.2592,29.4467 c 0.3776,0.5159 1.1048,-0.084 1.1048,-0.084 l 0.01,-0.006 c 0.0338,-0.018 0.0697,-0.0377 0.108,-0.0586 0.4541,-0.2487 1.2409,-0.6793 2.8586,-0.7273 1.024,-0.0346 1.9342,0.2519 2.7051,0.4946 0.521,0.164 0.9784,0.308 1.3643,0.3193 1.1807,0.03 1.0588,-0.6299 0.3996,-1.0479 -1.4544,-0.9218 -3.6619,-1.8897 -5.1802,-1.7997 -1.3125,0.082 -2.7389,1.4518 -3.1384,1.9777 -0.0539,0.0691 -0.1141,0.1281 -0.1709,0.1838 -0.1978,0.1938 -0.3542,0.3472 -0.0609,0.7481 z m -3.6039,3.1415 c 0.2377,0.33 -0.3796,0.7299 -0.3796,0.7299 v 0.008 c -0.0514,0.019 -0.0991,0.0387 -0.1443,0.0574 -0.2353,0.0972 -0.4034,0.1666 -0.6967,-0.0314 -0.3496,-0.2359 -1.6881,-0.4619 -2.4173,-0.5219 -0.7273,-0.0598 -1.9715,0.6702 -2.2652,0.8426 L 25.75,33.6741 c -0.2897,0.17 -0.6413,0.3759 -0.6672,0.2 -0.006,-0.0405 -0.0407,-0.0977 -0.0837,-0.1687 -0.1439,-0.2376 -0.3808,-0.6286 0.0577,-1.0552 1.5203,-1.4838 2.3553,-1.7377 3.3442,-1.5997 0.9889,0.1379 3.0166,1.2078 3.2543,1.5377 z"
       fill="#E73B2A"
       style="fill:#e73b2a;fill-opacity:1"
       id="path2" />
    <path
       fill-rule="evenodd"
       clip-rule="evenodd"
       d="m 55.5357,69.2337 c 0.3707,0.497 0.2687,1.2007 -0.2278,1.5718 -0.4965,0.3711 -1.1995,0.269 -1.5702,-0.228 l -3.2503,-4.2294 c -0.3702,-0.497 -0.2678,-1.2002 0.2287,-1.5708 0.4965,-0.3705 1.1991,-0.268 1.5692,0.229 z M 37.1804,80.0862 c 0.5007,-0.0022 0.9054,-0.4093 0.905,-0.9105 -4e-4,-0.5012 -0.4056,-0.9077 -0.9063,-0.9092 -0.5007,-0.0015 -0.9083,0.4027 -0.9116,0.9038 0.0011,0.5021 0.4074,0.9088 0.9089,0.9099 z m 1.9598,-2.0537 c 0.502,0 0.909,0.4074 0.909,0.9099 0,0.5025 -0.407,0.9098 -0.909,0.9098 -0.2411,0 -0.4723,-0.0958 -0.6427,-0.2664 -0.1705,-0.1707 -0.2663,-0.4021 -0.2663,-0.6434 0,-0.5025 0.407,-0.9099 0.909,-0.9099 z m 10.8397,-1.2238 c 0.5018,-0.0011 0.9078,-0.409 0.907,-0.9112 -7e-4,-0.5023 -0.4079,-0.9089 -0.9096,-0.9086 -0.5018,4e-4 -0.9083,0.4076 -0.9083,0.9099 0,0.2417 0.096,0.4734 0.2669,0.6441 0.1709,0.1707 0.4026,0.2663 0.644,0.2658 z m -0.1058,-10.0626 2.7029,4.4193 -0.002,-0.002 c 0.2817,0.4574 0.1977,1.0508 -0.1998,1.4119 -0.5813,0.5439 -4.7426,3.3455 -11.8486,4.6733 -1.746,0.324 -12.1762,1.3638 -19.5898,-3.4755 -1.4683,-0.9579 -1.0768,-2.1217 -0.9309,-2.5217 0.1458,-0.3999 0.871,-1.8037 1.6981,-1.7677 0.827,0.036 1.1586,0.5119 1.0947,0.8359 -0.0871,0.2901 -0.2632,0.5455 -0.5034,0.7299 l -10e-5,1e-4 c -0.154,0.1341 -0.7669,0.6679 -0.1537,1.1497 0.6133,0.4819 5.6036,3.0996 12.2641,3.4215 0.2413,-0.0262 0.4182,-0.2396 0.3995,-0.4819 v -4.2434 c 0.0254,-0.5995 0.5183,-1.0725 1.1178,-1.0725 0.5994,0 1.0924,0.473 1.1177,1.0725 v 4.2194 c 0,0.328 0.1958,0.4139 0.2957,0.4139 0.4734,-0.0339 0.9908,-0.0799 1.5382,-0.1459 0.0999,-0.008 0.2917,-0.082 0.2338,-0.37 -0.044,-0.2 -0.1199,-0.5879 -0.1199,-0.5879 -0.1359,-0.3832 -0.0532,-0.8101 0.216,-1.1146 0.2691,-0.3046 0.6823,-0.4388 1.0789,-0.3505 0.3965,0.0883 0.7139,0.3851 0.8287,0.7752 0,0 0.1438,0.6239 0.1998,0.9379 0.0021,0.0939 0.0481,0.1814 0.1242,0.2364 0.0761,0.055 0.1736,0.0711 0.2633,0.0435 1.5442,-0.2932 3.0616,-0.7132 4.5369,-1.2558 0.0941,-0.0373 0.168,-0.1127 0.2035,-0.2076 0.0354,-0.0949 0.0289,-0.2004 -0.0177,-0.2903 -0.1199,-0.274 -0.3676,-0.7899 -0.3676,-0.7899 -0.3227,-0.5263 -0.1582,-1.2148 0.3676,-1.5378 0.5257,-0.3231 1.2135,-0.1583 1.5362,0.3679 l 0.5155,1.0979 c 0.1078,0.242 0.3036,0.214 0.4814,0.124 0.3876,-0.214 0.6932,-0.39 1.0328,-0.6139 0.2797,-0.146 0.052,-0.546 0.052,-0.546 l -2.0697,-3.3855 c -0.3227,-0.5263 -0.1581,-1.2147 0.3676,-1.5378 0.5257,-0.323 1.2135,-0.1583 1.5363,0.368 z"
       fill="#E73B2A"
       style="fill:#e73b2a;fill-opacity:1"
       id="path3" />
    <path
       fill-rule="evenodd"
       clip-rule="evenodd"
       d="m 19.1869,77.5804 c 0.6751,-0.2834 1.1128,-0.9462 1.1087,-1.6789 0.0038,-0.4806 -0.186,-0.9424 -0.5266,-1.2811 -0.3407,-0.3387 -0.8033,-0.5257 -1.2833,-0.5186 -0.732,8e-4 -1.3913,0.4433 -1.6699,1.1209 -0.2786,0.6775 -0.1216,1.4564 0.3977,1.9727 0.5193,0.5164 1.2984,0.6684 1.9734,0.385 z m -0.6862,-0.1772 c -0.8383,0.0084 -1.5261,-0.6625 -1.5393,-1.5017 h 0.002 c -0.0098,-0.4098 0.1469,-0.806 0.4342,-1.0981 0.2873,-0.2921 0.6806,-0.455 1.0901,-0.4517 0.8384,0.0012 1.5184,0.68 1.522,1.5193 0.0036,0.8392 -0.6706,1.5238 -1.509,1.5322 z"
       fill="#E73B2A"
       style="fill:#e73b2a;fill-opacity:1"
       id="path4" />
    <path
       fill-rule="evenodd"
       clip-rule="evenodd"
       d="m 18.6069,74.9961 h -0.853 v 1.8077 h 0.2437 v -0.7759 h 0.5874 c 0.2337,0 0.2657,0.15 0.3016,0.328 0.0146,0.0719 0.017,0.1468 0.0193,0.2153 0.0033,0.1011 0.0062,0.1885 0.0466,0.2326 h 0.2697 c -0.081,-0.1535 -0.1177,-0.3266 -0.1058,-0.4999 -0.018,-0.174 -0.062,-0.3319 -0.2717,-0.3739 0.2015,-0.0578 0.3333,-0.2511 0.3136,-0.46 0,-0.2879 -0.2097,-0.4739 -0.5514,-0.4739 z m 0.3017,0.5119 c 0,0.266 -0.1918,0.324 -0.4195,0.324 h -0.5015 v -0.6319 h 0.5994 c 0.0857,-0.0112 0.1719,0.017 0.2344,0.0769 0.0625,0.0598 0.0946,0.1448 0.0872,0.231 z"
       fill="#E73B2A"
       style="fill:#e73b2a;fill-opacity:1"
       id="path5" />
    <path
       d="m 30.2088,72.1842 c 0,0 0,-0.264 -0.3876,-0.334 -0.3876,-0.07 -1.6701,0.078 -2.3553,0.364 -0.6853,0.2859 -1.1407,0.2859 -1.5343,-0.012 -0.3936,-0.298 -0.3716,-0.7039 -0.1159,-0.9439 0.2828,-0.287 0.6723,-0.4429 1.0748,-0.4299 0.1998,0 0.1998,-0.042 0.2657,-0.166 0.0659,-0.124 0.0679,-0.7059 -0.5114,-1.1779 -0.03,-0.022 1.3664,-0.6839 3.3282,-0.026 0,0 -0.6093,0.6 -0.4854,1.1999 0.0919,0.4539 0.3616,0.3279 0.5314,0.2299 0.1698,-0.0979 0.9309,-0.3999 1.2326,-0.1399 0.3016,0.2599 -0.5374,1.1878 -1.0428,1.4378"
       fill="#E73B2A"
       style="fill:#e73b2a;fill-opacity:1"
       id="path6" />
    <path
       d="m 29.4784,71.1034 c -0.335,-0.2165 -0.7261,-0.3298 -1.1247,-0.326 -1.3845,0.03 -1.3745,0.51 -1.3345,0.6339 0.0779,0.264 0.9129,0.526 2.4592,-0.3079"
       fill="#F8E931"
       style="fill:#f8e931;fill-opacity:1"
       id="path7" />
    <path
       fill-rule="evenodd"
       clip-rule="evenodd"
       d="m 35.0113,44.3416 c 0.1368,-1.0476 0.9669,-1.6017 1.2452,-1.7876 0.0593,-0.0395 0.0935,-0.0624 0.0907,-0.0698 -2.2594,-5.5372 -0.1998,-10.6225 -0.03,-10.9404 0.1698,-0.318 0.4595,-0.7 0.9869,-0.668 1.4264,0.086 2.9966,1.2859 3.8656,3.1416 1.332,2.8385 2.2806,5.8418 2.8208,8.9308 0,0 -1.8878,-0.386 -2.7968,-0.464 -4.0754,-0.3439 -5.4119,1.8718 -5.1222,2.7997 1.0268,3.2975 5.5238,2.6256 6.1391,2.3596 0.6153,-0.2659 1.0428,-0.1779 1.0168,0.552 -0.0063,0.1609 -0.009,0.3347 -0.0116,0.5119 -0.0132,0.8824 -0.0277,1.8493 -0.5118,1.7278 -0.4775,-0.118 -0.5793,-1.5998 -0.5793,-1.5998 0,0 -2.6091,0.036 -2.649,0.088 -3.1265,3.7634 -6.8623,4.9773 -6.8623,4.9773 0,0 0.5874,1.5698 4.1853,1.7457 7.7031,0.3868 12.5231,-7.9275 12.8371,-8.4692 0.0107,-0.0184 0.0161,-0.0278 0.0163,-0.0276 0.2857,0.226 0.7252,0.376 0.7572,-0.232 0.0319,-0.6079 0.0559,-2.9416 0.0559,-2.9416 0.2192,0.0905 0.4433,0.1686 0.6712,0.234 0.06,-1.5998 -0.3516,-4.5434 -0.3516,-4.5434 0,0 0.901,0.52 0.907,0.442 -0.0052,-1.665 -0.2412,-3.3213 -0.7012,-4.9213 0,0 0.7492,0 0.6952,-0.03 -0.4894,-0.32 -2.2394,-3.4616 -2.2394,-3.4616 0.2683,-0.1138 0.5304,-0.242 0.7851,-0.3839 -2.1476,-2.1317 -1.798,-3.6375 -1.798,-3.6375 0,0 0.6772,0.13 0.6692,0.12 -0.6263,-0.4848 -1.0687,-2.4057 -1.2344,-3.1254 -0.0394,-0.171 -0.0632,-0.2742 -0.0701,-0.2742 -6.3548,-0.2139 -10.2943,0.9039 -10.2943,0.9039 0,0 8.9718,-6.3551 12.1482,-8.3628 4.9224,-3.1196 7.7373,-2.7037 8.9898,-1.9998 1.2526,0.7039 1.8919,2.5317 0.5834,4.3994 -1.3085,1.8678 -6.3308,6.0412 -6.3688,6.0212 -1.1933,-0.4243 -2.4348,-0.6977 -3.6958,-0.8139 -0.054,2.4157 2.617,4.9513 2.617,4.9513 0,0 -1.3125,-0.1099 -1.3065,-0.088 0.3536,1.5998 1.9158,3.5776 1.9158,3.5776 l -0.9269,0.032 0.0259,0.0279 c 0.6697,1.1575 1.1791,2.4007 1.5143,3.6955 0,0 0.4955,0.088 0.4955,0.028 0,-0.6419 -1.6841,-3.4335 -1.6841,-3.4335 l 1.1307,-0.032 c 0,0 -1.7001,-3.1256 -1.5982,-3.1416 5.9932,-0.7998 11.5609,1.8278 14.7493,4.5774 3.2843,2.8376 4.5748,5.8172 4.5309,5.8432 -11.7469,6.6288 -17.9854,14.7397 -18.5196,15.4342 -0.0259,0.0338 -0.0384,0.05 -0.0374,0.0477 1.1007,-1.7738 1.5143,-6.3032 1.4863,-6.2852 -2.3433,1.5158 -3.3961,1.4558 -3.3961,1.4558 1.0472,-0.909 1.831,-2.0832 2.2694,-3.3995 0.4734,-1.5238 0.3216,-4.3654 0.3216,-4.3654 0.2439,0.1465 0.4953,0.28 0.7532,0.4 0.0819,-0.414 0.1698,-3.4616 0.1698,-3.4616 0.1159,0.0563 0.2354,0.1051 0.3576,0.146 -0.4176,-3.0296 -1.2806,-3.3995 -1.2806,-3.3475 0.054,3.4515 -0.2637,5.1533 -0.2637,5.1533 0,0 -0.5214,-0.224 -0.5214,-0.2 0.0954,1.6769 -0.039,3.3589 -0.3995,4.9993 -0.1277,-0.1052 -0.2611,-0.2034 -0.3996,-0.294 -0.2817,1.4918 -1.0768,3.5796 -1.0768,3.5796 l -0.2317,-0.694 c 0,0 0.028,-0.5359 -0.3816,-0.0319 -5.8574,7.2829 -11.2797,7.1157 -12.7017,7.0719 l -0.0299,-9e-4 c -4.4471,-0.1388 -6.4159,-1.9379 -6.708,-2.2047 -0.0234,-0.0215 -0.0361,-0.033 -0.0383,-0.033 -3.9955,-0.05 -4.1713,-0.5179 -4.1613,-0.5279 3.1424,-2.7057 3.1824,-3.8095 3.1824,-3.8095 -6.0871,0.162 -8.6822,-1.6838 -8.6442,-1.7198 2.1474,-2.2351 3.9258,-3.0521 4.4915,-3.312 0.0558,-0.0257 0.0999,-0.0459 0.1312,-0.0615 0.3497,-0.174 0.1739,-0.436 0.1739,-0.436 0,0 -0.1998,-0.8758 -0.3177,-1.3398 -0.0456,-0.2898 -0.2026,-0.5504 -0.4375,-0.7259 -0.2317,-0.2319 -0.1458,-1.4578 -0.1199,-1.7457 0.026,-0.288 0,-0.294 -0.1698,-0.294 -0.1698,0 -0.2896,-0.118 -0.3516,-0.3999 -0.0378,-0.1724 -0.0413,-0.6333 -0.0443,-1.0199 -0.0019,-0.2457 -0.0035,-0.4614 -0.0136,-0.5539 -0.0073,-0.0673 0.0011,-0.122 0.0085,-0.1697 0.0188,-0.1209 0.0305,-0.1969 -0.2402,-0.3203 -0.2971,-0.1353 -0.217,-0.5082 -0.1557,-0.7936 v 0 c 0.0166,-0.0774 0.0318,-0.1482 0.0378,-0.2062 0.028,-0.272 -0.1139,-0.352 -0.3496,-0.38 -0.2001,-0.0237 -0.2044,-0.0691 -0.2366,-0.4051 -0.0057,-0.0599 -0.0124,-0.129 -0.0211,-0.2088 -0.0205,-0.1864 -0.0193,-0.383 -0.0181,-0.5709 0.0021,-0.3443 0.0041,-0.6594 -0.1278,-0.8289 -0.6412,-0.8099 -0.813,-1.4498 -0.7591,-1.4238 0.5534,0.278 0.6133,0.146 0.6133,0.146 0,0 -0.032,-0.032 0,-0.6139 0.032,-0.5819 0.5993,-2.1997 0.5993,-2.1997 0,0 -0.9629,-0.364 -0.9849,-0.324 -0.6572,1.3213 -2.7504,2.0245 -3.0959,2.1406 -0.0315,0.0106 -0.0485,0.0163 -0.0485,0.0171 -0.1678,3.1636 -1.6841,4.4514 -1.6841,4.4514 0.1845,0.1766 0.3505,0.3716 0.4955,0.5819 0.3775,0.496 -0.2637,1.1359 -0.2637,1.1359 0,0 -2.8748,2.3277 -3.8677,2.8536 -0.9928,0.5259 -1.712,-0.352 -1.712,-0.352 0,0 -0.9609,0.9659 -1.834,0.7599 C 8.59262,41.5484 6.55493,40.2326 6.20333,39.8566 5.85173,39.4807 5.88569,38.8068 6.05949,38.4868 6.2333,38.1668 6.45904,37.205 6.34916,36.1011 6.30956,35.7033 6.10957,35.2176 5.85236,34.593 5.39597,33.4847 4.75944,31.9389 4.51924,29.67 4.35343,28.1282 4.98271,26.8144 5.24442,26.5244 5.36228,26.3939 5.46231,26.2215 5.58192,26.0154 5.7279,25.7639 5.90305,25.4621 6.17536,25.1246 6.55426,24.6551 7.02429,24.6862 7.2325,24.7 c 0.06404,0.0042 0.10331,0.0068 0.10754,-0.0073 0.65726,-2.3997 2.1216,-3.3195 3.13846,-3.6415 1.0168,-0.322 2.4732,0.144 2.4732,0.144 0,0 0.3995,-0.8139 1.9158,-0.8719 1.8619,-0.072 3.6938,2.2137 4.3611,3.2336 0.6672,1.0198 1.0308,2.7836 0.6672,3.5515 -1.1231,2.3572 -3.7116,2.4665 -4.2825,2.4906 -0.0698,0.003 -0.1095,0.0047 -0.1125,0.009 -1.2466,2.3337 -3.4561,2.4417 -3.4561,2.4417 0,0 -0.6313,1.4938 -2.23945,1.7457 -1.34357,0.2142 -1.98306,-0.7431 -2.34652,-1.2872 -0.17967,-0.2689 -0.2919,-0.4369 -0.38838,-0.3125 -0.14476,0.1865 0.1002,0.8356 0.39323,1.6121 0.2974,0.788 0.6443,1.7073 0.68355,2.4073 0.05793,1.1059 -0.23174,2.2697 -0.46547,2.5017 -0.04609,0.0457 -0.08752,0.0827 -0.12146,0.1129 l -2e-5,10e-5 c -0.13814,0.1232 -0.15206,0.1356 0.14944,0.1789 0.94654,0.1414 1.52626,0.5338 1.89788,0.7852 l 1.6e-4,2e-4 c 0.08558,0.0579 0.16012,0.1083 0.22556,0.1465 0.34958,0.204 0.49348,-0.086 0.49348,-0.086 0,0 1.3105,-1.1638 1.6281,-1.5478 0.3177,-0.3839 0.5534,0 0.5534,0 0.3224,0.3201 0.6618,0.6225 1.0168,0.9059 0.1203,0.0831 0.2793,0.0831 0.3996,0 l 1.8898,-1.3678 c 0,0 -1.1766,-1.1539 -1.1067,-1.1998 2.7518,-1.3949 2.3339,-5.2868 2.2716,-5.8666 v 0 -10e-5 -10e-5 c -0.0051,-0.0477 -0.0078,-0.0729 -0.0062,-0.0724 3.0985,0.6459 3.8976,-0.7599 3.8717,-0.7819 -0.4471,-0.3574 -0.8758,-0.7372 -1.2846,-1.1379 0.738,-0.7732 1.1272,-1.8154 1.0768,-2.8836 -0.1119,-2.0497 -1.6402,-3.6735 -1.6402,-3.6735 0,0 3.1964,-2.3856 3.2124,-2.3556 0.1201,0.2412 0.4478,0.9036 0.8109,1.6375 0.6091,1.2311 1.3177,2.6634 1.3127,2.6459 C 20.7109,12.9703 16.7134,9.31481 16.7134,9.31481 c 0,0 9.0458,-7.37098 21.4298,-7.59895 5.5237,-0.09399 10.56,1.18784 10.524,1.30982 -2.0456,6.99902 -0.3995,13.70612 -0.3995,13.70612 l -0.0539,0.032 c -1.8388,1.4652 -6.9749,5.0686 -9.6625,6.9542 l -0.4201,0.2948 c -6.8359,4.8238 -8.7811,5.5789 -9.6424,5.9133 h -10e-5 -10e-5 l -1e-4,10e-5 c -0.1026,0.0398 -0.1898,0.0737 -0.2681,0.1078 -1.8543,0.7848 -3.8451,0.6071 -3.9232,0.6001 l -0.0024,-2e-4 c -0.831,1.6997 -0.9309,2.8376 -0.9309,2.8376 0.0886,-0.0012 0.1768,-0.0106 0.2637,-0.028 0.1299,-0.028 0.1998,0.132 0.1998,0.132 0,0 -0.1319,1.6717 -0.1778,1.9177 -0.046,0.246 -0.018,0.26 0.3036,0.26 0.3217,0 0.4355,0.2239 0.3836,0.5679 -0.0519,0.344 -0.1578,1.3418 -0.1578,1.3418 0.1276,-0.0089 0.2518,0.0438 0.334,0.142 0.0822,0.0981 0.1125,0.2297 0.0815,0.3539 -0.036,0.278 -0.036,1.5698 -0.028,1.5698 0.3199,0.0502 0.5618,0.3164 0.5814,0.6399 -0.014,0.22 -0.014,1.7758 0,1.7898 0.0673,0.0688 0.1332,0.1314 0.1946,0.1897 0.1954,0.1857 0.3456,0.3283 0.3548,0.4942 0.0628,0.5006 0.1596,0.9963 0.2896,1.4838 0.0999,0.306 0.1778,0.3079 0.1778,0.3079 0,0 0.3037,-0.1299 0.4375,-0.1999 0.1174,-0.0614 0.0842,-0.155 -0.0051,-0.4076 -0.0126,-0.0355 -0.0263,-0.0742 -0.0408,-0.1163 -0.4875,-1.3999 -0.8351,-3.3996 -0.7212,-4.9094 0.1718,-2.2417 1.1827,-2.9596 1.7121,-2.9696 1.0917,-0.0136 1.774,0.7228 2.2981,1.2884 0.0906,0.0979 0.1765,0.1906 0.259,0.2734 2.3273,2.3557 2.7628,5.9212 2.7628,5.9212 0.3901,0.1305 1.0212,0.3846 1.4996,0.5771 0.3335,0.1342 0.5928,0.2386 0.6446,0.2504 z M 51.3862,15.06 c -0.9495,-0.5621 -1.9285,-1.0728 -2.9327,-1.5298 0,0 -0.038,-1.0338 0,-1.6937 0.0379,-0.6599 0.0739,-1.5738 0.0739,-1.5738 2.3651,0.9593 4.6132,2.1858 6.7004,3.6555 -0.6022,0.0758 -1.1979,0.1968 -1.782,0.3619 -0.6995,0.2182 -1.3859,0.4766 -2.0556,0.7739 z m -31.5523,0.416 c -1.8917,1.1836 -3.6529,2.5645 -5.2541,4.1194 -0.4374,0.0115 -0.8708,0.087 -1.2865,0.224 -0.3158,0.0934 -0.5906,0.2916 -0.7791,0.5619 -0.9149,-0.2341 -1.8761,-0.2148 -2.78086,0.056 2.38936,-2.9333 5.24016,-5.4574 8.44046,-7.473 0,0 0.5394,0.5879 1.6901,2.5177 z M 29.9744,63.2654 C 29.7127,62.7115 29.481,61.0817 29.6807,59.6819 h 0.002 c 0.2058,-1.3978 0.5834,-1.9797 1.0489,-2.5597 0.4654,-0.5799 0.9069,-1.2818 -0.2298,-1.3678 -0.3269,-0.0244 -0.7058,0.0144 -1.1127,0.0559 -0.7942,0.0812 -1.6949,0.1733 -2.5232,-0.1719 -1.2525,-0.5219 -2.7329,-1.4798 -3.2283,-2.7356 -0.4954,-1.2558 -1.1966,-1.6798 -1.746,-1.6558 -0.5494,0.024 -0.5494,0.6999 -0.5494,1.2239 0,0.107 0.0072,0.2771 0.0161,0.489 0.0348,0.8254 0.0965,2.2869 -0.134,3.1445 -0.0944,0.3514 -0.2447,0.8077 -0.4033,1.2895 -0.328,0.996 -0.6917,2.1005 -0.6715,2.6099 0.03,0.7559 -0.0079,2.4157 -0.3516,3.1436 -0.1072,0.2271 -0.288,0.4571 -0.4872,0.7103 v 0 c -0.4392,0.5584 -0.9671,1.2297 -0.9891,2.2313 -0.0319,1.4558 0.2817,2.2757 1.0408,2.0317 0.5506,-0.171 0.8853,-0.5927 1.2898,-1.1024 0.4042,-0.5093 0.8781,-1.1065 1.7068,-1.6292 l 0.1036,-0.0653 c 1.0541,-0.665 2.2513,-1.4203 5.1525,-1.4765 0.7451,-0.0127 1.1822,0.105 1.4976,0.1898 0.2301,0.062 0.3953,0.1064 0.568,0.0702 0.4096,-0.086 0.5554,-0.288 0.2937,-0.8419 z m 7.957,-5.9652 c 0.6771,0.0633 1.3586,0.0633 2.0357,0 l -0.006,0.008 c 1.2649,-0.1094 2.3598,-0.9165 2.8344,-1.2663 0.0373,-0.0275 0.0708,-0.0522 0.1003,-0.0735 0.0514,-0.0372 0.1067,-0.0795 0.1665,-0.1252 0.4093,-0.3128 1.0264,-0.7844 2.013,-0.8647 1.1307,-0.092 4.2432,-2.0817 5.0323,-2.5996 0.0627,-0.0412 0.1265,-0.0837 0.1909,-0.1266 0.7459,-0.4975 1.5761,-1.051 1.8188,-0.1914 0.1917,0.6788 -0.6203,1.5213 -1.1772,2.0991 -0.2093,0.2172 -0.3825,0.3969 -0.4529,0.5166 -0.1467,0.2493 -0.1898,0.7714 -0.2374,1.3469 -0.0359,0.4354 -0.0744,0.9013 -0.1622,1.3027 -0.1593,0.7288 -0.706,1.438 -1.0371,1.8675 -0.0922,0.1197 -0.1677,0.2176 -0.2134,0.2882 l -0.0457,0.0702 c -0.2209,0.3389 -0.5953,0.9133 -0.5637,1.2376 0.0346,0.5452 -0.1325,1.0841 -0.4694,1.5138 -0.3005,0.3389 -0.302,0.9932 -0.3036,1.6762 -6e-4,0.248 -0.0012,0.4997 -0.0161,0.7415 -0.0559,0.9079 -0.9549,1.3618 -1.714,1.3078 -0.4285,-0.0305 -1.2158,-0.3151 -2.014,-0.6036 l -2e-4,-1e-4 c -0.616,-0.2227 -1.2386,-0.4478 -1.7076,-0.5601 -0.4893,-0.1172 -1.1939,-0.0805 -1.9483,-0.0411 -0.9059,0.0473 -1.8835,0.0984 -2.6465,-0.1089 -0.7751,-0.2109 -0.96,-1.0608 -1.1321,-1.8519 v -1e-4 0 -10e-5 0 l -1e-4,-1e-4 v -10e-5 0 -1e-4 0 c -0.0466,-0.214 -0.0922,-0.4237 -0.1483,-0.6153 -0.2114,-0.7875 -0.0954,-1.6271 0.3216,-2.3277 0.1991,-0.3396 0.2523,-0.6814 0.3107,-1.0573 v 0 c 0.0366,-0.235 0.0752,-0.4832 0.1528,-0.7524 0.2017,-0.6999 0.4634,-0.8419 1.0188,-0.8099 z m 11.6075,6.3102 c 0.2554,-0.0531 0.2852,-0.0593 0.313,-0.435 0.0039,-0.0529 0.009,-0.103 0.0137,-0.1502 v 0 c 0.0293,-0.2893 0.0473,-0.4678 -0.2774,-0.5177 -0.3287,-0.017 -0.6581,-0.017 -0.9869,0 -0.3216,0.032 -0.4355,0.3839 -0.4355,0.6139 0,0.0084 -10e-5,0.0169 -3e-4,0.0255 l -7e-4,0.0224 -0.0018,0.0415 v 0 c -0.01,0.2146 -0.0214,0.4585 0.4383,0.4865 0.3136,0.029 0.6299,-10e-5 0.933,-0.086 z M 35.8677,57.2742 c 0.963,-0.06 0.5494,0.9899 0.3177,1.5718 -0.0265,0.0666 -0.0622,0.1492 -0.1037,0.2454 -0.3215,0.7447 -0.9946,2.3039 -0.4956,3.5401 0.5771,1.4497 0.4102,1.5132 0.1744,1.6029 h -1e-4 c -0.0205,0.0078 -0.0414,0.0158 -0.0625,0.0249 -0.2637,0.1139 -0.7251,-0.114 -1.1027,-0.35 -0.3776,-0.236 -1.3984,-0.056 -1.9778,0.35 -0.5793,0.4059 -1.2486,0 -1.5382,-0.258 -0.0232,-0.0207 -0.0464,-0.041 -0.0695,-0.0613 -0.2656,-0.233 -0.5189,-0.4552 -0.5998,-0.9906 -0.1071,-1.0442 -0.1471,-2.0942 -0.1198,-3.1435 0.0259,-1.0759 1.2525,-2.9356 1.5422,-3.3196 0.2897,-0.3839 0.8451,0.2 0.8451,0.2 0.7871,0.5819 2.2354,0.6399 3.1963,0.5819 z M 65.618,33.0175 c 0.7682,0.5144 1.4878,1.0981 2.1496,1.7438 v 0.006 c 0.6842,0.6969 1.3247,1.4356 1.9178,2.2117 -1.1055,-6.7048 -4.1265,-12.9458 -8.6981,-17.9695 0,0 -0.3416,0.4679 -0.8371,1.0678 -0.3698,0.4286 -0.7704,0.8296 -1.1986,1.1999 3.0214,3.4012 5.2929,7.4016 6.6664,11.7403 z M 4.76496,43.0142 C 4.76382,40.7176 5.00014,38.427 5.47016,36.1791 l -0.002,0.008 C 5.45352,35.9388 5.38537,35.6966 5.26839,35.4772 5.1541,35.2763 4.97969,34.7613 4.84043,34.3501 4.77036,34.1432 4.70919,33.9625 4.66907,33.8614 4.5492,33.5595 3.85998,30.8059 3.85998,30.8059 c -1.41037,3.918 -2.1296,8.0516 -2.12559,12.2163 0,9.5887 3.67983,18.5494 10.36031,25.2325 1.7916,1.7956 3.7754,3.3883 5.9153,4.7493 V 69.3306 C 9.99704,63.5094 4.76496,53.8927 4.76496,43.0142 Z M 15.4249,44.556 c -0.028,-0.052 -2.0717,10.9185 -1.9758,18.3354 0,0 0,0.06 0.01,0.164 h 4.7486 v 1.2298 h -4.0434 l -0.6752,-0.7998 v 0.0399 C 8.6266,57.8661 5.9736,50.6731 5.9736,43.0202 c 0,-0.8252 0.0313,-1.6465 0.0939,-2.4637 1.24163,0.9307 2.63839,1.6335 4.1253,2.0757 0.4052,0.1205 0.7171,-0.0755 1.0135,-0.2617 0.2399,-0.1507 0.4696,-0.2951 0.7305,-0.2602 0.2704,0.0362 0.4773,0.114 0.6563,0.1813 0.2071,0.0779 0.3768,0.1418 0.5644,0.1107 0.2441,-0.0405 0.8944,-0.3843 1.7822,-0.8535 0.3836,-0.2028 0.8116,-0.429 1.2703,-0.6643 0.022,-0.012 -0.1139,0.9338 -0.1139,0.9338 0,0 4.8545,-3.4395 6.6905,-3.8394 0,0 -0.0859,1.3078 0,1.5138 0.0382,0.0917 0.1174,0.1244 0.1934,0.1557 0.0945,0.0389 0.1841,0.0759 0.1841,0.2222 0.0317,0.5778 0.1092,1.1522 0.2318,1.7178 0.0417,0.1125 0.1454,0.2189 0.2412,0.3172 0.1016,0.1042 0.1943,0.1993 0.1943,0.2827 0,0.0323 -0.0045,0.0956 -0.0104,0.178 v 2e-4 c -0.0237,0.3309 -0.0692,0.9683 0.0683,1.1316 0.0591,0.0702 0.1287,0.1233 0.1958,0.1747 0.128,0.0978 0.2474,0.189 0.2697,0.3792 0.0339,0.29 0.0859,0.8139 0.0859,0.8139 0,0 -2.645,1.5178 -3.5959,2.4777 0,0 -3.1125,-1.6898 -3.9855,-1.9797 -0.1222,-0.0406 -0.2324,-0.0758 -0.3324,-0.1078 -0.6149,-0.1964 -0.8449,-0.2698 -1.094,-0.7101 z m 17.5981,4.9113 -7e-4,10e-5 0.0107,-0.0161 z m -7e-4,10e-5 c -0.965,1.4486 -3.2157,2.9215 -3.2157,2.9215 0,0 -0.004,0.03 0.0859,0.03 3.4096,0.0308 6.5883,-2.6877 7.5179,-3.4827 l 4e-4,-4e-4 3e-4,-2e-4 8e-4,-7e-4 c 0.0964,-0.0824 0.1684,-0.144 0.2139,-0.1795 0.4834,-0.378 0.843,-0.144 0.3995,0.3459 -2.9041,3.2163 -5.4057,3.8339 -6.5659,4.1204 h -10e-5 l -3e-4,1e-4 c -0.1525,0.0376 -0.2818,0.0696 -0.3858,0.101 -1.8619,0.5439 -3.4182,0.1719 -3.3702,0.1439 1.0987,-0.6939 2.8208,-3.5995 2.8208,-3.5995 z m 2.4729,-3.0565 c 0.0708,0.413 0.1554,0.9064 -1.1817,1.2666 -0.1549,0.0423 -0.3423,0.1049 -0.5638,0.179 l -6e-4,1e-4 -10e-5,10e-5 -8e-4,2e-4 -10e-5,10e-5 -4e-4,1e-4 -1e-4,10e-5 c -1.6458,0.5501 -5.1744,1.7296 -11.2687,-0.0937 0,0 3.7158,-3.3795 11.8925,-3.0276 0.5814,0.022 1.0469,1.1059 1.1028,1.5418 0.0055,0.0432 0.0131,0.0876 0.0209,0.133 z m 5.3869,-7.2082 c 0,0 -0.5274,-0.8399 -0.6992,-1.0439 -0.1719,-0.2039 -0.2857,-0.1139 -0.3457,0.176 l -0.0086,0.0414 c -0.0699,0.3315 -0.2593,1.2304 0.2664,1.3184 0.2046,0.0322 0.4135,0.0247 0.6153,-0.022 0,0 0.5813,0.146 0.1718,-0.4699 z m -3.1405,-7.507 c 0.4875,0.154 1.3085,1.2259 1.3085,1.2259 v 0.006 c 0,0 -0.9749,0.2399 -1.1567,0.9898 -0.8116,3.3906 0.1941,6.2564 0.4604,7.0152 0.0286,0.0817 0.0487,0.1389 0.0571,0.1698 0.0374,0.0968 0.0297,0.2052 -0.0209,0.2957 -0.0506,0.0905 -0.1389,0.1536 -0.2408,0.1723 -0.0342,0.0121 -0.0689,0.0379 -0.1048,0.0647 -0.1237,0.0921 -0.2624,0.1954 -0.4466,-0.2107 C 35.744,37.281 36.9616,33.1128 37.151,32.4643 l 0.0113,-0.0387 c 0.0124,-0.0429 0.0242,-0.0848 0.0356,-0.1253 0.1209,-0.4295 0.2005,-0.7124 0.5437,-0.6046 z m -9.1157,5.8312 C 28.449,37.2805 28.2483,37.0521 28.0266,36.845 27.6368,36.4769 27.533,36.7593 27.4738,36.9204 l -0.008,0.0216 -0.0065,0.017 c -0.9538,2.3568 -0.4178,4.1899 -0.0475,5.4565 v 0 c 0.0486,0.166 0.0943,0.3223 0.1334,0.4687 0.2697,1.0199 0.4235,1.0398 0.9309,0.9739 0.3856,-0.052 0.3037,-0.26 0.1998,-0.478 -0.359,-0.6434 -0.5903,-1.3503 -0.6812,-2.0817 -0.4615,-2.5336 0.6812,-3.3195 0.6812,-3.3195 0.1578,-0.218 -0.0919,-0.424 -0.0919,-0.424 z m 1.3086,3.2516 c 0.2257,0.2 0.7012,1.2618 0.7012,1.2618 l 0.004,0.012 c 0.0311,0.4112 -0.2716,0.4312 -0.5071,0.4467 l -0.0183,0.0012 c -0.2378,0.016 -0.4915,-0.0759 -0.4915,-0.2759 0,-0.0528 -0.0012,-0.1431 -0.0028,-0.2522 v -2e-4 c -0.0042,-0.3047 -0.0104,-0.7561 0.0028,-0.9475 0.018,-0.2599 0.0859,-0.4459 0.3117,-0.2459 z M 7.20504,29.0224 l 10e-6,-10e-5 c 0.10868,-0.2968 0.21323,-0.5824 0.64043,-0.6121 0.54784,-0.037 0.52097,1.1433 0.50696,1.7589 -0.00188,0.0825 -0.00353,0.1549 -0.00353,0.2128 0,0.4899 0.48745,1.4458 1.17867,1.5318 0.69122,0.086 0.46747,-2.0197 0.39954,-2.6456 C 9.8188,28.2003 8.67277,27.1325 8.3964,26.875 l -1.1e-4,-10e-5 C 8.372,26.8523 8.35444,26.8359 8.34491,26.8264 7.31643,25.7969 6.9481,26.8528 6.78801,27.3116 6.77241,27.3564 6.75879,27.3954 6.74672,27.4263 6.47104,28.1162 6.3232,29.702 6.64484,29.85 6.9235,29.9745 6.99318,29.7132 7.0679,29.433 7.09282,29.3396 7.11829,29.2441 7.15226,29.1601 l 0.004,-0.008 c 0.01702,-0.043 0.03294,-0.0865 0.04878,-0.1297 z m 6.81146,-2.322 c 0.1214,0.3646 0.1326,0.757 0.0319,1.1279 l 0.004,0.002 -0.01,0.0287 -0.0102,0.0296 -10e-5,2e-4 c -0.1398,0.4059 -0.6605,1.9178 -1.6618,1.9972 -0.3995,0.03 -1.0807,-0.388 -1.3984,-1.4838 -0.0674,-0.2276 -0.2484,-0.5597 -0.4454,-0.921 C 10.2857,27.0395 10.021,26.5541 9.91114,26.1625 9.77529,25.6746 9.6834,24.6067 10.2647,24.2268 c 0.5814,-0.38 1.0109,-0.458 2.0517,-0.4 0.3017,0 0.4675,0.264 0.6213,0.5999 0.0676,0.1476 0.2613,0.5523 0.4672,0.9826 0.2628,0.549 0.5455,1.1398 0.6116,1.2911 z m 4.2048,-0.5886 v -2e-4 c -0.0058,-0.533 -0.0109,-1.0013 -0.8526,-2.3568 -0.326,-0.52 -0.6978,-1.0099 -1.1108,-1.4638 -0.1018,-0.12 -0.9589,-0.1679 -1.3304,-0.136 -0.3716,0.032 -0.7712,0.168 -0.7392,0.7999 0.0237,0.7253 0.1837,1.4397 0.4715,2.1057 0.1764,0.351 0.6188,0.9311 1.0092,1.4431 0.277,0.3633 0.5278,0.6922 0.6389,0.8806 0.2677,0.454 0.6553,0.542 0.9589,0.27 0.3037,-0.272 0.9769,-0.8759 0.9589,-1.3298 v 0.008 C 18.2229,26.2562 18.2221,26.1834 18.2213,26.1118 Z M 63.6902,66.081 c 2.4133,0.146 2.9946,-2.3397 2.8808,-2.9616 l -0.008,-0.004 c -0.2917,-1.5958 -3.4881,-1.2558 -3.4881,-1.2558 0.2505,-0.6092 0.4353,-1.2434 0.5514,-1.8918 0.1498,-0.7439 -0.1238,-1.0978 -0.3556,-1.2638 0.0899,-0.21 0.2917,-0.4879 0.5114,-0.5319 0.2198,-0.044 0.7792,0.106 1.0189,1.0458 0.1899,0.7624 0.2799,1.5462 0.2677,2.3317 3.3669,-5.5948 5.1339,-12.0079 5.1082,-18.5394 0,-0.1803 -0.0039,-0.3534 -0.0078,-0.5289 v -10e-5 -2e-4 -1e-4 -10e-5 C 70.165,42.3002 70.1609,42.117 70.1609,41.9203 l -3.0226,1.8798 c -0.1053,4.8445 -1.2822,9.6054 -3.4461,13.94 L 63.1748,58.646 C 63.1151,58.6155 63.053,58.5901 62.989,58.57 c -0.1389,-0.0391 -0.2041,-0.0208 -0.316,0.0105 -0.0538,0.0151 -0.1185,0.0333 -0.2074,0.0495 l -0.9309,0.172 c -0.0495,-0.9862 -0.121,-1.0272 -0.4862,-1.2369 -0.0621,-0.0356 -0.1326,-0.0761 -0.213,-0.1269 -0.8251,-0.5199 -3.2563,1.2798 -3.2563,1.2798 -0.0225,-0.3575 0.0377,-0.7154 0.1758,-1.0458 0.5274,-1.4958 -1.0049,-1.6198 -1.3425,-1.5158 -3.7817,1.1638 -5.1122,4.5713 -5.6676,6.0531 -0.5554,1.4818 -0.2597,2.0118 0.8171,2.2157 1.0768,0.204 2.3813,-0.9058 2.3813,-0.9058 0,0 0.0399,1.3958 0.9988,1.6877 0.8171,0.248 2.4453,-0.9878 2.4453,-0.9878 0,0 -0.3336,1.0378 0.9549,1.3998 0.7731,0.2139 2.2954,-0.7859 2.2954,-0.7859 0,0 0.6393,1.1018 3.0525,1.2478 z m 1.3006,-1.7218 c 0.7311,-0.7219 0.3995,-1.5078 -0.6953,-1.5358 -1.0947,-0.0279 -2.641,1.0179 -2.641,1.0179 0.3756,0.5499 2.1456,1.6918 3.3363,0.5179 z m -4.9424,-2.4416 c 0.6113,-0.6999 1.8619,-1.4818 2.0956,-1.2499 0.3476,0.35 -0.8411,1.6898 -1.3645,2.1837 -0.0496,0.0469 -0.1021,0.0972 -0.1569,0.1497 l -7e-4,7e-4 c -0.5227,0.5008 -1.2516,1.1992 -1.6763,0.9875 -0.4695,-0.234 0.4915,-1.3718 1.1028,-2.0717 z m 0.1198,-2.4997 c -0.3156,-0.2879 -1.6321,-0.2599 -3.1464,1.2778 -0.5194,0.528 -1.5682,2.3537 -1.1987,2.7637 0.3696,0.4099 1.9978,-0.9259 2.4473,-1.3359 0.0504,-0.046 0.1217,-0.108 0.2077,-0.1827 0.6799,-0.5912 2.2745,-1.9779 1.6821,-2.5229 z m -4.9754,1.2137 c -0.0098,0.0132 -0.0188,0.0252 -0.0269,0.0361 h 0.004 c -0.6233,0.8319 -2.2555,2.5037 -3.0546,2.1877 -0.6173,-0.2419 0.3477,-2.2736 1.6861,-3.5835 0.6773,-0.6639 2.1316,-2.0137 2.5631,-1.6877 0.7003,0.5354 -0.8078,2.5591 -1.1717,3.0474 z"
       fill="#E73B2A"
       style="fill:#e73b2a;fill-opacity:1"
       id="path8" />
    <path
       fill-rule="evenodd"
       clip-rule="evenodd"
       d="m 51.3897,15.0631 -0.0086,-0.0052 0.0186,-0.0088 z m -0.0086,-0.0052 c -0.8793,0.4184 -2.6324,1.487 -2.6324,1.487 -0.2257,-0.3979 -0.2797,-2.2357 -0.2917,-3.0176 1.0059,0.4482 1.9825,0.9594 2.9241,1.5306 z M 33.1664,18.8526 C 37.2957,17.5708 44.118,17.7668 44.1,17.7748 36.8402,22.2401 24.9696,23.9739 24.9696,23.9739 l -0.2637,-1.1098 c 0,0 1.798,-1.9458 8.4605,-4.0155 z m 18.9585,37.1109 c -2.0996,3.3735 -3.7478,6.6391 -3.7478,6.6391 l 2.2235,0.078 c 0.04,-0.144 0.0919,-0.298 0.1558,-0.464 0.5554,-1.4857 1.8859,-4.8913 5.6676,-6.0551 0.3376,-0.106 1.8699,0.02 1.3405,1.5138 -0.137,0.3314 -0.1965,0.6898 -0.1738,1.0478 0,0 2.4312,-1.7997 3.2563,-1.2778 0.0825,0.0519 0.1546,0.0927 0.2178,0.1285 0.3611,0.2044 0.4321,0.2446 0.4814,1.2333 0,0 0.0939,-0.014 0.2198,-0.038 2.6758,-4.6631 4.1139,-9.9346 4.1772,-15.3119 -8.5902,5.7992 -13.243,11.7564 -13.8183,12.5063 z m -2.969,-31.4215 3e-4,-0.0142 -0.002,0.014 z m 0,0 c -0.0432,2.4114 2.6174,4.9371 2.6174,4.9371 0,0 -1.3125,-0.1079 -1.3065,-0.0879 0.0567,0.2473 0.1322,0.49 0.2257,0.7259 l 0.7991,0.01 c 5.0563,-0.62 9.7889,1.1658 13.0232,3.3995 C 63.1036,28.9733 60.66,24.8081 57.3749,21.3563 55.4331,23.248 52.878,25.3557 52.8501,25.3557 51.6567,24.9339 50.416,24.6606 49.1559,24.542 Z M 22.2128,19.8632 c -0.1122,0.0517 -2.5973,1.878 -3.2324,2.3689 v -0.006 c -0.8709,-0.9165 -1.8743,-1.6971 -2.9766,-2.3156 1.3969,-1.2896 2.9126,-2.4439 4.5269,-3.4476 0.6654,1.1802 1.2482,2.4583 1.5215,3.0577 v 0 c 0.0889,0.1949 0.145,0.318 0.1606,0.3426 z m 0,0 c 0.0016,-7e-4 0.0027,-0.0011 0.0033,-0.0011 4e-4,0 6e-4,10e-5 6e-4,4e-4 0.0015,0.0069 10e-5,0.007 -0.0039,7e-4 z m 7.7552,34.6685 -0.0095,-1e-4 -0.0065,-0.0059 z m -0.0095,-1e-4 c -3.9863,-0.0506 -4.1618,-0.5178 -4.1498,-0.5278 3.1404,-2.7057 3.1804,-3.8095 3.1804,-3.8095 -6.0871,0.162 -8.6822,-1.6838 -8.6462,-1.7198 0.2757,-0.2839 0.542,-0.5472 0.7991,-0.7899 l -0.4116,-0.3999 -0.0323,-0.0173 -2e-4,-2e-4 C 20.0968,46.9451 17.6132,45.614 16.8468,45.359 16.7207,45.3167 16.6073,45.2802 16.5046,45.2472 h -10e-5 c -0.6057,-0.1947 -0.8349,-0.2684 -1.0861,-0.7061 -0.0259,-0.05 -2.0696,10.9185 -1.9737,18.3355 v 0.1319 h 6.3828 c 0.2956,-0.7799 0.3256,-2.2996 0.2956,-3.0136 -0.0222,-0.4936 0.3273,-1.5505 0.6492,-2.524 v -1e-4 c 0.1697,-0.5132 0.3317,-1.0032 0.4276,-1.3753 0.2221,-0.862 0.1656,-2.3354 0.1341,-3.1579 -0.0079,-0.2059 -0.0142,-0.3711 -0.0142,-0.4756 0,-0.5219 0,-1.1999 0.5473,-1.2238 0.5474,-0.024 1.2506,0.3999 1.7461,1.6557 0.4954,1.2559 1.9777,2.2137 3.2283,2.7357 0.8265,0.3449 1.7272,0.2522 2.5216,0.1705 0.4075,-0.0419 0.7871,-0.081 1.1143,-0.0566 0.5074,0.04 0.6972,0.2 0.7132,0.418 L 31.69,55.6635 C 31.0572,55.3793 30.4729,54.9973 29.9585,54.5316 Z M 22.7901,37.976 c -1.8359,0.3999 -6.6964,3.8415 -6.6964,3.8415 0.0167,-0.1173 0.1323,-0.9311 0.1119,-0.9199 -0.0143,0.0075 -0.0285,0.0151 -0.0427,0.0227 -0.053,0.0282 -0.1051,0.056 -0.1571,0.0813 l 0.1998,-1.3798 c 0.7052,-0.554 1.2565,-0.9999 1.2565,-0.9999 0,0 0.6413,-0.6399 0.2637,-1.1359 -0.1458,-0.2102 -0.3124,-0.4052 -0.4974,-0.5819 0,0 1.5183,-1.2878 1.6861,-4.4534 0,-8e-4 0.017,-0.0065 0.0485,-0.017 0.3454,-0.1158 2.4387,-0.8174 3.0959,-2.1387 0.022,-0.038 0.9849,0.324 0.9849,0.324 0,0 -0.5673,1.6158 -0.5993,2.1997 -0.032,0.5839 0,0.6159 0,0.6159 0,0 -0.0599,0.13 -0.6133,-0.148 -0.054,-0.028 0.1179,0.6139 0.7591,1.4238 0.1318,0.1708 0.1299,0.4855 0.1278,0.8293 -0.0012,0.1877 -0.0024,0.3841 0.0181,0.5705 0.0088,0.0804 0.0154,0.15 0.0212,0.2102 0.032,0.3358 0.0366,0.3837 0.2365,0.4058 0.2357,0.0259 0.3775,0.1119 0.3496,0.3759 -0.0478,0.2058 -0.0792,0.4151 -0.0939,0.6259 -0.1558,0.106 -0.3057,0.206 -0.4595,0.306 -0.0017,-0.0193 -0.0017,-0.0387 0,-0.058 z"
       fill="#F8E931"
       style="fill:#f8e931;fill-opacity:1"
       id="path9" />
  </g>
</svg>
