<?xml version="1.0" encoding="UTF-8"?>
<svg id="Layer_1" data-name="Layer 1" xmlns="http://www.w3.org/2000/svg" viewBox="0 0 181.46 245.02">
  <defs>
    <style>
      .cls-1 {
        fill: #dd1d42;
      }
    </style>
  </defs>
  <path class="cls-1" d="M137.17,47.26c6.49,7.32,13.35,14.25,20.37,20.77-36.17-13.44-72.34-26.88-108.51-40.32-7.4-8.84-14.49-18.09-21.02-27.7,36.38,15.75,72.77,31.51,109.15,47.26"/>
  <path class="cls-1" d="M157.54,88.39c-7.4,1.74-14.54,3.99-21.53,6.74-27.5-6.22-55-12.44-82.5-18.67-8.06-7.84-16.25-16.17-24.41-24.96,42.81,12.3,85.62,24.59,128.43,36.89"/>
  <path class="cls-1" d="M135.74,98.87c7.46,5.93,14.76,11.39,21.8,16.36-33.9-5.13-67.8-10.26-101.7-15.39-7.7-7.22-15.71-14.95-23.89-23.17,34.59,7.4,69.19,14.8,103.78,22.2"/>
  <path class="cls-1" d="M157.54,72.48c-.42,3.74-.61,7.54-.67,11.38-26.67-7.98-53.33-15.97-80-23.95-7.81-7.81-15.58-16.06-23.09-24.73,34.59,12.43,69.17,24.87,103.76,37.3"/>
  <path class="cls-1" d="M157.54,119.79c-.07,3.9-.26,7.79-.68,11.64-24.92-1.87-49.85-3.75-74.77-5.62-6.83-5.98-14.07-12.48-21.64-19.49,32.36,4.49,64.73,8.98,97.09,13.47"/>
  <path class="cls-1" d="M157.54,135.78c-40.05-2.5-99.2-5.63-139.25-8.13,7.57,7.01,14.82,13.51,21.64,19.49h94.64l22.97-11.36Z"/>
  <polygon class="cls-1" points="71.63 209.84 77.76 215.97 6.13 215.97 0 209.84 71.63 209.84"/>
  <polygon class="cls-1" points="181.46 215.97 181.46 217.46 79.25 217.46 77.76 215.97 181.46 215.97"/>
  <polygon class="cls-1" points="16.99 193.24 5.18 168.84 5.14 168.74 3.35 168.74 3.35 194.5 4.58 194.5 4.58 170.55 16.14 194.4 16.18 194.5 17.77 194.5 28.96 171.28 28.96 194.5 30.2 194.5 30.2 168.74 28.81 168.74 16.99 193.24"/>
  <path class="cls-1" d="M49.52,171.17c-.74-.75-1.61-1.35-2.61-1.78-1-.43-2.07-.65-3.2-.65h-8.25v25.75h8.25c1.13,0,2.21-.22,3.2-.65,1-.43,1.87-1.03,2.61-1.78.74-.75,1.33-1.63,1.76-2.63.43-1,.65-2.08.65-3.21v-9.23c0-1.13-.22-2.21-.65-3.21-.43-.99-1.02-1.88-1.76-2.63M50.69,186.23c0,.97-.19,1.89-.55,2.73-.37.85-.87,1.6-1.5,2.22-.63.63-1.37,1.13-2.21,1.49-.84.37-1.75.55-2.72.55h-7.01v-23.22h7.01c.97,0,1.88.19,2.72.55.84.37,1.58.87,2.21,1.49.63.62,1.13,1.37,1.5,2.22.37.85.55,1.77.55,2.73v9.23Z"/>
  <polygon class="cls-1" points="58.42 193.23 58.42 168.74 57.19 168.74 57.19 194.5 73.68 194.5 73.68 193.23 58.42 193.23"/>
  <path class="cls-1" d="M94.39,180.81c.79.71,1.41,1.57,1.88,2.58.46,1.01.7,2.09.7,3.24s-.21,2.13-.63,3.09c-.42.96-.98,1.79-1.69,2.5-.71.71-1.54,1.27-2.48,1.67-.95.41-1.96.61-3.04.61h-11.77v-25.75h10.3c1.08,0,2.11.21,3.09.63.98.42,1.84.98,2.57,1.69.74.71,1.32,1.55,1.75,2.5.43.96.65,1.97.65,3.05,0,1.52-.44,2.92-1.33,4.19M84.13,174.96v3.27h3.53c.44,0,.85-.16,1.23-.48.38-.32.57-.71.57-1.16s-.19-.83-.57-1.15c-.38-.32-.79-.48-1.23-.48h-3.53ZM89.09,188.17c.44,0,.82-.16,1.14-.5.32-.33.48-.72.48-1.16s-.16-.82-.48-1.14c-.32-.32-.7-.48-1.14-.48h-4.97v3.28h4.97Z"/>
  <polygon class="cls-1" points="114.81 175.4 105.13 175.4 105.13 178.31 114.81 178.31 114.81 184.97 105.13 184.97 105.13 187.84 114.81 187.84 114.81 194.49 98.44 194.49 98.44 168.74 114.81 168.74 114.81 175.4"/>
  <path class="cls-1" d="M132.58,194.49l-1.07-4.05h-7.21l-1.1,4.05h-6.92l6.99-25.75h9.27l6.95,25.75h-6.92ZM126.14,183.61h3.53l-1.77-6.55-1.77,6.55Z"/>
  <path class="cls-1" d="M145.82,176.76c0,.52.27.92.81,1.21.54.3,1.21.57,2.02.81s1.69.52,2.64.83c.95.31,1.83.73,2.64,1.27.81.54,1.48,1.25,2.02,2.12.54.87.81,2.01.81,3.4,0,.96-.16,1.95-.48,2.98-.32,1.03-.84,1.98-1.55,2.83-.71.86-1.63,1.57-2.74,2.13-1.12.57-2.47.85-4.07.85-1.2,0-2.34-.23-3.42-.7-1.08-.47-2.01-1.1-2.8-1.9s-1.41-1.74-1.88-2.81c-.47-1.08-.7-2.22-.7-3.42h6.7c0,.6.21,1.11.62,1.54.41.43.91.64,1.5.64s1.08-.16,1.5-.49c.41-.33.63-.88.66-1.65h-.04c0-.52-.27-.93-.81-1.23-.54-.31-1.21-.59-2.02-.85-.81-.26-1.69-.54-2.63-.85-.94-.31-1.82-.73-2.63-1.27-.81-.54-1.48-1.25-2.02-2.12-.54-.87-.81-1.98-.81-3.33,0-1.74.32-3.18.96-4.3.64-1.13,1.41-2.03,2.32-2.69.91-.66,1.87-1.12,2.89-1.38,1.02-.26,1.9-.39,2.63-.39,1.23,0,2.37.23,3.44.7,1.07.47,2,1.09,2.8,1.88s1.43,1.71,1.9,2.78c.47,1.07.7,2.21.7,3.44h-6.7c0-.59-.2-1.09-.6-1.51-.4-.42-.91-.63-1.52-.63s-1.14.19-1.53.57c-.39.38-.58.89-.58,1.53"/>
  <polygon class="cls-1" points="178.1 168.74 178.1 175.4 171.11 175.4 171.11 194.49 164.42 194.49 164.42 175.4 157.43 175.4 157.43 168.74 178.1 168.74"/>
  <polygon class="cls-1" points="6.95 236.72 6.95 239.18 9.7 239.18 9.7 240.74 6.95 240.74 6.95 244.76 5.39 244.76 5.39 235.16 10.88 235.16 10.88 236.72 6.95 236.72"/>
  <polygon class="cls-1" points="65.58 236.72 61.07 236.72 61.07 239.18 65.58 239.18 65.58 240.74 61.07 240.74 61.07 243.2 65.58 243.2 65.58 244.76 59.51 244.76 59.51 235.16 65.58 235.16 65.58 236.72"/>
  <path class="cls-1" d="M117.14,245.02c-.4,0-.78-.08-1.14-.23-.36-.15-.67-.36-.93-.63-.27-.27-.48-.58-.63-.93-.16-.36-.23-.74-.23-1.15h1.56c0,.39.13.72.39.98.26.26.59.39.97.39.18,0,.36-.03.52-.1.17-.07.31-.17.44-.29.13-.12.22-.27.3-.43.07-.17.11-.34.11-.54,0-.21-.03-.39-.08-.52-.05-.14-.15-.25-.27-.35-.13-.1-.29-.18-.49-.26-.2-.08-.45-.16-.75-.26-.28-.08-.57-.18-.89-.3-.32-.12-.61-.29-.88-.5-.27-.21-.5-.48-.67-.82s-.27-.76-.27-1.28c0-.41.08-.79.23-1.14.16-.36.37-.67.63-.93.27-.27.58-.47.93-.63.36-.15.73-.23,1.14-.23s.78.07,1.14.22.67.36.93.63.48.58.63.94c.16.36.23.74.23,1.15h-1.56c0-.39-.14-.72-.4-.98-.27-.26-.59-.39-.97-.39s-.71.13-.97.39c-.26.26-.39.58-.39.96,0,.21.02.39.08.52.05.14.14.25.26.35.12.1.29.18.49.26.2.08.45.16.76.26.28.08.57.18.89.3.32.12.61.28.88.49.27.21.5.49.68.83.18.34.28.77.28,1.29,0,.4-.08.78-.23,1.14-.16.36-.37.67-.63.94-.27.27-.58.47-.93.62-.36.15-.74.23-1.14.23"/>
  <polygon class="cls-1" points="176.07 236.72 173.18 236.72 173.18 244.76 171.61 244.76 171.61 236.72 168.72 236.72 168.72 235.16 176.07 235.16 176.07 236.72"/>
</svg>