<?xml version="1.0" encoding="UTF-8"?>
<svg id="Layer_1" xmlns="http://www.w3.org/2000/svg" version="1.1" viewBox="0 0 442 226">
  <!-- Generator: Adobe Illustrator 29.2.1, SVG Export Plug-In . SVG Version: 2.1.0 Build 116)  -->
  <defs>
    <style>
      .st0 {
        fill: #171f5f;
      }
    </style>
  </defs>
  <path class="st0" d="M265.4,9.1c1.6-1.6,3.4-3,4.9-4.7-3.1,5.6-6.9,10.6-11.1,15.4-8.9,9.7-20.2,17.2-32.6,21.9-6.1,2.2-12.4,4-18.9,5.1-15.9,2.5-32.4,1.5-47.9-2.8v-.2c19.1,1.4,38.5-.1,56.8-6,9.9-3.1,19.3-7.6,28-13.1,7.4-4.5,14.2-9.9,20.7-15.6Z"/>
  <path class="st0" d="M98.4,74.1c4.2-.6,8.4-.5,12.5.3,4.7,1,9.2,3.2,12.6,6.5,4.3,4,6.7,9.6,7.5,15.3,1,7,0,14.5-3.9,20.5-2.6,4.2-6.7,7.5-11.2,9.5-5.1,2.1-10.6,2.7-16.1,2.1-6.5-.6-12.9-3.5-17.3-8.4-3.9-4.4-6.1-10.1-6.5-15.9-.6-6.7.7-13.7,4.5-19.3,4-6,10.7-9.7,17.8-10.6M100.3,83.4c-4.3.6-8.5,3-10.8,6.9-2.8,4.4-3.1,9.9-2.4,15,.7,4.7,3.4,9.3,7.8,11.6,3.8,1.9,8.3,2.3,12.4,1.6,4.1-.5,8-2.7,10.3-6.1,2.6-3.9,3.4-8.7,3-13.3-.4-4.3-1.8-8.8-5.1-11.8-4.1-3.7-10-4.8-15.4-3.9Z"/>
  <path class="st0" d="M236.3,73.9c5.8-.6,11.8,0,17.1,2.5,5.2,2.5,9.6,6.9,11.9,12.2,1.8,4,2.4,8.4,2.5,12.7-.2,5.5-1.4,11.1-4.5,15.6-2.4,3.7-5.9,6.6-9.9,8.6-6.2,2.9-13.3,3.4-20,2.2-5.4-1-10.4-3.7-14.2-7.7-3.7-4-6-9.3-6.6-14.7-.8-6.7,0-13.9,3.8-19.8,2.6-4.3,6.6-7.6,11.2-9.6,2.8-1.2,5.8-1.8,8.8-2.1M238.1,83.1c-4.2.3-8.4,2.1-11.2,5.4-4.2,5.1-4.8,12.4-3.2,18.6,1.1,4.3,4,8.2,8.2,10,4.2,1.8,9,1.9,13.5.9,3.9-1,7.4-3.4,9.3-7,2.4-4.2,2.6-9.2,2.1-13.8-.7-4.3-2.7-8.7-6.4-11.2-3.5-2.5-8-3.2-12.2-2.9Z"/>
  <path class="st0" d="M44.6,74.6c3.4,0,6.8,0,10.1,0,0,17.6,0,35.2,0,52.8-3.1,0-6.4,0-9.4-1-4.6-1.7-8.5-4.8-11.7-8.3-5.9-6.1-10.5-13.3-15.5-20.1-2.5-3.2-4.9-6.5-8.1-9,0,12.8,0,25.6,0,38.4-3.3,0-6.5,0-9.8,0v-52.8c2.5,0,5-.3,7.4.6,4.2,1.4,7.5,4.5,10.5,7.6,7.6,8,13.3,17.5,20.4,25.9,1.8,2.2,3.8,4.2,6.1,6,0-13.3,0-26.7,0-40Z"/>
  <path class="st0" d="M344.5,74.6c12.8,0,25.5,0,38.3,0,0,3.2,0,6.3,0,9.5-3.2.3-6.4,0-9.6.1-6.2,0-12.4-.1-18.6,0,0,3.8,0,7.6,0,11.3,8.7.1,17.4,0,26.1,0,0,3.1,0,6.3,0,9.5-2.7.2-5.5,0-8.2,0-5.4,0-10.8,0-16.2,0-.6,0-1.2,0-1.7.2.1,3.3-.5,6.9,1.5,9.8,1.8,2.7,5.4,3.1,8.4,3.4,6.2.2,12.3,0,18.4-1,0,3.1,0,6.2,0,9.3-3.3.8-6.6,1.1-10,1.4-5.4.2-10.8.4-16.1-.9-4-1-7.8-3.2-9.8-6.9-2-3.4-2.4-7.5-2.5-11.4,0-10.5,0-20.9,0-31.4,0-1,0-2.1,0-3.1Z"/>
  <path class="st0" d="M404.7,74.6c3.4,0,6.9,0,10.3,0v35.1c0,2,.3,4,1.3,5.7,1.1,1.8,3.2,2.6,5.2,2.9,6.8.6,13.6,0,20.3-.8v9.3c-4.7.9-9.5,1.4-14.2,1.5-4.5.1-9.2,0-13.5-1.7-2.1-.8-4.1-2.1-5.5-3.8-2.2-2.7-3.3-6.1-3.6-9.6-.4-2.6-.2-5.2-.2-7.8,0-10.3,0-20.6,0-30.9Z"/>
  <path class="st0" d="M143.8,74.7c3.9,0,7.7,0,11.6,0,5.6,12.1,10.8,24.3,16.4,36.4,5.5-12.1,10.8-24.3,16.4-36.4,3.9,0,7.8,0,11.7,0-8.5,17.7-17.1,35.4-25.7,53.1-1.6,0-3.2,0-4.8,0-8.5-17.7-17.1-35.4-25.6-53.1Z"/>
  <path class="st0" d="M279.2,74.7c16.1,0,32.1,0,48.2,0,0,3,0,6.1,0,9.1-6.3,0-12.7,0-19,0,0,14.5,0,29.1,0,43.6-3.4,0-6.8,0-10.2,0-.2-1.1-.2-2.3-.2-3.4,0-13.4,0-26.8,0-40.2-6.3,0-12.6,0-18.9,0,0-3,0-6,0-9Z"/>
  <path class="st0" d="M284.1,159.5c2.5-.8,5.3-.5,7.8.4,0,.6,0,1.2,0,1.8-2.4-.7-5.2-1.6-7.6-.3-1.7.9-1.7,3.7,0,4.5,2.3,1.2,5.1,1.2,7.1,2.9,2.3,2.2,1.7,6.6-1.3,7.9-2.9,1.3-6.3.8-9.1-.5,0-.6,0-1.2,0-1.8,2.6.9,5.5,1.8,8.1.6,2-.7,2.3-3.7.7-5-2.2-1.5-5.1-1.3-7.2-2.9-2.5-2-1.7-6.6,1.4-7.7Z"/>
  <path class="st0" d="M374.8,160.9c.8-1.1,2.2-1.6,3.6-1.7,2-.2,4.1,0,6,.8,0,.6,0,1.2,0,1.8-2.4-.7-5.1-1.6-7.5-.4-1.8.8-1.7,3.7,0,4.5,2.4,1.2,5.3,1.1,7.3,3.1,2.2,2.3,1.2,6.6-1.7,7.8-2.8,1.2-6.1.7-8.9-.5,0-.6,0-1.3,0-1.9,2.3,1,4.9,1.7,7.3,1,.8-.2,1.6-.6,2.1-1.3.8-1.3.6-3.2-.7-4.1-2.1-1.3-4.8-1.2-6.8-2.6-2-1.4-2.2-4.6-.7-6.5Z"/>
  <path class="st0" d="M87,159.3c2-.4,4.1,0,5.8.9,2.3,1.3,3.7,3.9,4,6.5.4,2.9-.3,6.2-2.4,8.3-3.1,3.3-9,3.2-11.9-.2-2.1-2.4-2.6-6-2-9.1.6-3.2,3.2-6,6.5-6.4M87.1,161.1c-1.3.3-2.5,1-3.3,2.1-2,2.8-2,6.9-.2,9.8,1.9,3,6.7,3.3,9.1.8,2.5-2.6,2.6-6.8.9-9.9-1.3-2.2-4-3.4-6.5-2.8Z"/>
  <path class="st0" d="M174.7,160.2c2.7-1.6,6-1,8.9-.2,0,.6,0,1.2,0,1.9-2.4-.8-5.2-1.4-7.6-.2-1.7.8-1.5,3.5,0,4.4,2,1.3,4.6,1.2,6.6,2.5,2.1,1.3,2.7,4.4,1.3,6.4-1,1.4-2.6,2.2-4.3,2.4-2.3.3-4.7,0-6.9-1.1,0-.6,0-1.2,0-1.8,2.6.9,5.6,1.8,8.3.5,1.9-.8,2.2-3.8.5-5-2.1-1.3-4.7-1.3-6.8-2.6-2.4-1.6-2.4-5.7,0-7.2Z"/>
  <path class="st0" d="M208.7,159.6c1.9-.6,4-.5,5.9.2,0,.6,0,1.1,0,1.7-1.6-.5-3.4-.8-5-.3-1.2.5-2.1,1.8-1.8,3.1.2,1.6,1.6,2.7,2.6,3.9,1.3,1.3,2.6,2.7,4,4,.4-1.4.5-2.8.3-4.1.6,0,1.1,0,1.7,0,.4,1.9.2,3.8-.6,5.6,1.2,1.2,2.4,2.4,3.6,3.6-.8,0-1.7,0-2.5,0-.7-.7-1.4-1.4-2.1-2.1-1.7,1.8-4.2,2.6-6.6,2.3-2.2,0-4.4-1.7-4.7-4-.5-2.6,1.1-5.2,3.4-6.4-.8-1.3-1.4-2.9-.9-4.4.3-1.4,1.5-2.5,2.8-2.9M205.3,173.2c.2,1.2,1.3,1.9,2.4,2.2,2,.6,4.4-.1,5.8-1.7-1.9-1.8-3.7-3.7-5.6-5.5-1.8.9-3,3-2.5,5Z"/>
  <path class="st0" d="M308.9,159.5c2.1-.5,4.4-.2,6.3.8,2.2,1.2,3.6,3.7,3.9,6.2.5,3-.2,6.4-2.4,8.7-3.1,3.3-9,3.2-11.9-.3-2-2.4-2.5-5.8-2-8.7.6-3.1,2.8-5.9,6-6.6M309.6,161.1c-2.8.5-4.5,3.3-4.8,6-.2,2.4.3,5,2,6.8,2.2,2.2,6.2,2.2,8.4,0,2.5-2.6,2.6-6.8.9-9.9-1.3-2.2-4-3.4-6.5-2.8Z"/>
  <path class="st0" d="M55.8,159.5c.6,0,1.3,0,1.9,0v7.6c3.3,0,6.7,0,10,0v-7.6c.6,0,1.3,0,1.9,0,0,5.8,0,11.7,0,17.5h-1.9v-8c-3.3,0-6.7,0-10,0,0,2.7,0,5.3,0,8h-1.9c0-5.8,0-11.7,0-17.5Z"/>
  <path class="st0" d="M104.5,159.5c4.9,0,9.8,0,14.7,0,0,.6,0,1.2,0,1.9-2.1,0-4.3,0-6.4,0,0,5.2,0,10.4,0,15.6-.6,0-1.3,0-1.9,0,0-5.2,0-10.4,0-15.6-2.1,0-4.3,0-6.4,0,0-.6,0-1.2,0-1.9Z"/>
  <path class="st0" d="M129.8,170.6c0-3.7,0-7.4,0-11.1,3.5,0,6.9,0,10.4,0,0,.6,0,1.2,0,1.9-2.8,0-5.6,0-8.4,0,0,1.8,0,3.7,0,5.5,2.7,0,5.4,0,8.1,0,0,.6,0,1.2,0,1.9h-8.1c0,1.5-.1,3,.1,4.5.1,1,.9,1.7,1.9,1.9,2.2.4,4.4,0,6.5,0,0,.6,0,1.2,0,1.8-2.6.3-5.2.7-7.8,0-1.1-.2-2-1.1-2.3-2.1-.5-1.3-.4-2.7-.4-4.1Z"/>
  <path class="st0" d="M152.8,159.7c.6,0,1.3,0,1.9,0,0,4.5,0,9,0,13.5,0,.9.4,1.9,1.4,2.1,2.2.5,4.5.1,6.7,0,0,.6,0,1.2,0,1.8-2.7.3-5.4.7-8-.1-1.4-.5-2-1.9-2-3.3,0-4.6,0-9.3,0-13.9Z"/>
  <path class="st0" d="M236.1,159.5c2.3,0,4.6,0,6.9,0,1.4,0,2.8.7,3.9,1.7,1.9,2,1.6,5.6-.6,7.2-.6.5-1.4.8-2.2,1,1.7,2.5,3.5,5,5.2,7.5-.8,0-1.5,0-2.3,0-1.7-2.4-3.4-4.8-5-7.2-1.3,0-2.6,0-3.9,0,0,2.4,0,4.8,0,7.2-.6,0-1.3,0-1.9,0,0-5.8,0-11.7,0-17.5M238.1,161.4v6.5c2.1-.1,4.2.3,6.2-.3,2.4-.8,2.5-4.8,0-5.7-2-.7-4.2-.3-6.3-.4Z"/>
  <path class="st0" d="M259.8,159.5h10.4c0,.6,0,1.2,0,1.9-2.8,0-5.6,0-8.4,0,0,1.8,0,3.7,0,5.5,2.7,0,5.4,0,8.1,0,0,.6,0,1.2,0,1.9h-8.1c0,1.5-.1,3,.1,4.5.1,1,.9,1.7,1.9,1.9,2.2.4,4.4,0,6.6,0,0,.6,0,1.2,0,1.8-2.7.3-5.6.8-8.2,0-1.6-.6-2.2-2.5-2.3-4.1,0-4.3,0-8.7,0-13Z"/>
  <path class="st0" d="M329.5,159.5c2.3,0,4.5,0,6.8,0,1.6,0,3.2.8,4.3,2,1.2,1.6,1.3,3.9.3,5.6-.7,1.2-2,2-3.4,2.4,1.7,2.5,3.4,5,5.1,7.5-.8,0-1.5,0-2.3,0-1.7-2.4-3.4-4.8-5.1-7.2-1.3,0-2.5,0-3.8,0,0,2.4,0,4.8,0,7.2-.6,0-1.3,0-1.9,0,0-5.8,0-11.7,0-17.5M331.4,161.4c0,2.2,0,4.3,0,6.5,2.1-.1,4.2.3,6.2-.3,2.4-.9,2.4-4.8,0-5.7-2-.7-4.2-.3-6.3-.4Z"/>
  <path class="st0" d="M350.1,159.5c4.9,0,9.7,0,14.6,0,0,.6,0,1.2,0,1.9h-6.4c0,5.2,0,10.4,0,15.6-.6,0-1.3,0-1.9,0,0-5.2,0-10.4,0-15.6-2.1,0-4.2,0-6.2,0,0-.6,0-1.2,0-1.9Z"/>
</svg>